# xmcd
#
# Track frame offsets:
#	150
#	25163
#	55594
#	75673
#	101888
#	129159
#	157189
#
# Disc length: 2367 seconds
#
# Revision: 1
# Processed by: cddbd v1.5.1PL0 Copyright (c) Steve Scherf et al.
# Submitted via: CDex 1.50Beta5
#
DISCID=4f093d07
DTITLE=Elephant Talk - Yoru No Button
DYEAR=2003
DGENRE=Rock
TTITLE0=夜のボタン
TTITLE1=からっぽの世界
TTITLE2=天使のマーチ
TTITLE3=Luster
TTITLE4=わたぼうしのとぶところ
TTITLE5=Nonelinear
TTITLE6=A Castoff Skin
EXTD=
EXTT0=
EXTT1=
EXTT2=
EXTT3=
EXTT4=
EXTT5=
EXTT6=
PLAYORDER=
